# xmcd
# Track frame offsets:
# 150
# 16425
# 30845
# 65400
# 81645
# 93735
# 109700
# 122625
# 136116
#
# Disc length: 2307 seconds
# Revision: 0
# Processed by: cddbd v1.4PL0 Copyright (c) Steve Scherf et al.
# Submitted via: VisiTrax 2.9.5.180 - For more info visit www.synapsa.com
#
DISCID=70090109
DTITLE=Shakey Ground blues band - no need to worry
DYEAR=2000
DGENRE=
TTITLE0=Naturall Ball
TTITLE1=Nobody but you
TTITLE2=The sky is crying
TTITLE3=Tore up
TTITLE4=Bye bye bird
TTITLE5=no need to worry
TTITLE6=Living hand to mouth
TTITLE7=I know you dont love me
TTITLE8=Hold that plane
EXTD=
EXTT0=
EXTT1=
EXTT2=
EXTT3=
EXTT4=
EXTT5=
EXTT6=
EXTT7=
EXTT8=
PLAYORDER=
